<svg width="64" height="42" viewBox="0 0 64 42" fill="none" xmlns="http://www.w3.org/2000/svg">
<rect x="0.74359" y="1.24359" width="52.3077" height="30.2564" rx="2.30769" stroke="#EAEAEB" stroke-width="0.51282"/>
<path d="M15.8538 15.4069C15.8265 15.4069 15.7923 15.4069 15.7649 15.4069C15.1222 15.3863 14.6094 14.853 14.6094 14.2034C14.6094 13.5402 15.1496 13 15.8128 13C16.476 13 17.0162 13.5402 17.0162 14.2034C17.0094 14.8598 16.4966 15.3863 15.8538 15.4069Z" stroke="#292D32" stroke-width="0.769231" stroke-linecap="round" stroke-linejoin="round"/>
<path d="M14.4933 17.3216C13.8369 17.7592 13.8369 18.4772 14.4933 18.9148C15.2386 19.4139 16.4625 19.4139 17.2078 18.9148C17.8642 18.4772 17.8642 17.7592 17.2078 17.3216C16.4694 16.8225 15.2454 16.8225 14.4933 17.3216Z" stroke="#292D32" stroke-width="0.769231" stroke-linecap="round" stroke-linejoin="round"/>
<path d="M22.9033 16.6172C22.0934 17.9531 21.6494 18.7344 21.5713 18.9609C21.5713 18.9714 21.5322 18.987 21.4541 19.0078C21.376 19.0312 21.3265 19.043 21.3057 19.043C21.2874 19.043 21.2718 19.0312 21.2588 19.0078C21.1989 18.8984 21.1546 18.8268 21.126 18.793C21.0973 18.7591 21.0687 18.7344 21.04 18.7188C21.014 18.7031 21.001 18.6927 21.001 18.6875C21.001 18.625 21.2705 18.1458 21.8096 17.25C22.3486 16.3516 22.7796 15.6745 23.1025 15.2188C23.0088 15.2839 22.9229 15.3477 22.8447 15.4102C22.7692 15.4727 22.7223 15.5039 22.7041 15.5039C22.6885 15.5039 22.6755 15.4935 22.665 15.4727C22.6546 15.4492 22.6455 15.4219 22.6377 15.3906C22.6299 15.3594 22.6169 15.3307 22.5986 15.3047C22.5804 15.276 22.5726 15.2526 22.5752 15.2344C22.5778 15.2135 22.5882 15.1797 22.6064 15.1328C22.6247 15.0859 22.7223 14.9805 22.8994 14.8164C23.0791 14.6523 23.2705 14.4974 23.4736 14.3516C23.6794 14.2031 23.8174 14.1289 23.8877 14.1289C23.958 14.1289 24.0322 14.1706 24.1104 14.2539C24.1885 14.3346 24.2275 14.4115 24.2275 14.4844C24.2249 14.5156 24.0479 14.806 23.6963 15.3555C23.3473 15.9023 23.083 16.3229 22.9033 16.6172Z" fill="#BFC0C2"/>
<path d="M23.9072 18.3047C24.5791 18.1719 25.0452 18.1055 25.3057 18.1055C25.402 18.1055 25.4567 18.1354 25.4697 18.1953C25.4749 18.2188 25.488 18.237 25.5088 18.25C25.5296 18.2604 25.5505 18.3112 25.5713 18.4023C25.5947 18.4935 25.6077 18.5677 25.6104 18.625V18.6602C25.6104 18.7513 25.5765 18.8034 25.5088 18.8164C25.2588 18.8685 24.8512 18.9154 24.2861 18.957C23.7236 18.9987 23.389 19.0273 23.2822 19.043C23.2275 19.043 23.1403 19.013 23.0205 18.9531C22.9971 18.9297 22.971 18.888 22.9424 18.8281C22.9163 18.7682 22.9033 18.7161 22.9033 18.6719C22.9033 18.6276 22.9281 18.556 22.9775 18.457C22.9854 18.4388 23.1481 18.2552 23.4658 17.9062C23.5439 17.8229 23.7471 17.6367 24.0752 17.3477C24.4059 17.056 24.6351 16.8385 24.7627 16.6953C24.8929 16.5495 25.1195 16.3086 25.4424 15.9727C25.7653 15.6367 26.0049 15.3763 26.1611 15.1914C26.3174 15.0039 26.3955 14.8711 26.3955 14.793C26.3955 14.7435 26.3577 14.7188 26.2822 14.7188C26.2067 14.7188 26.1143 14.7422 26.0049 14.7891C25.8981 14.8333 25.7731 14.901 25.6299 14.9922C25.2939 15.2083 24.971 15.5339 24.6611 15.9688C24.6455 15.9818 24.6377 16.0091 24.6377 16.0508C24.6169 16.1029 24.5726 16.1458 24.5049 16.1797C24.4372 16.2135 24.3825 16.2305 24.3408 16.2305C24.2992 16.2305 24.2458 16.2174 24.1807 16.1914C24.1182 16.1628 24.0713 16.1341 24.04 16.1055C24.0088 16.0768 23.9932 16.0221 23.9932 15.9414C23.9932 15.8607 24.0387 15.7461 24.1299 15.5977C24.221 15.4466 24.3486 15.2878 24.5127 15.1211C24.6768 14.9518 24.859 14.793 25.0596 14.6445C25.2627 14.4935 25.4893 14.3685 25.7393 14.2695C25.9893 14.1706 26.2015 14.1211 26.376 14.1211C26.5505 14.1211 26.6794 14.1589 26.7627 14.2344C26.9163 14.375 26.9932 14.5312 26.9932 14.7031C26.9932 14.875 26.9111 15.0859 26.7471 15.3359C26.5856 15.5859 26.3656 15.8607 26.0869 16.1602C25.8083 16.4596 25.5452 16.7318 25.2979 16.9766C25.0505 17.2214 24.7757 17.4857 24.4736 17.7695C24.1715 18.0508 23.9827 18.2292 23.9072 18.3047Z" fill="#BFC0C2"/>
<path d="M29.1807 17.1836C29.1468 17.4961 29.001 17.793 28.7432 18.0742C28.488 18.3529 28.1676 18.5846 27.7822 18.7695C27.3994 18.9518 27.0257 19.043 26.6611 19.043C26.484 19.043 26.3499 18.9883 26.2588 18.8789C26.1702 18.7669 26.126 18.6497 26.126 18.5273C26.126 18.4049 26.1755 18.2852 26.2744 18.168C26.376 18.0508 26.4723 17.9922 26.5635 17.9922C26.6025 17.9922 26.626 18.0339 26.6338 18.1172C26.652 18.2734 26.7197 18.3516 26.8369 18.3516C27.0374 18.3516 27.2718 18.2982 27.54 18.1914C27.8109 18.0846 28.0439 17.9557 28.2393 17.8047C28.4346 17.651 28.5309 17.5169 28.5283 17.4023C28.5257 17.2852 28.4398 17.1914 28.2705 17.1211C28.1038 17.0508 27.8656 17.0156 27.5557 17.0156C27.501 17.0156 27.4567 16.9857 27.4229 16.9258C27.389 16.8633 27.3721 16.7969 27.3721 16.7266C27.3721 16.6536 27.3903 16.5885 27.4268 16.5312C27.4658 16.474 27.5075 16.4297 27.5518 16.3984C27.596 16.3646 27.6663 16.3177 27.7627 16.2578C27.859 16.1953 27.9255 16.151 27.9619 16.125C28.001 16.0964 28.0687 16.0469 28.165 15.9766C28.2614 15.9062 28.3408 15.8477 28.4033 15.8008C28.4658 15.7539 28.5479 15.6914 28.6494 15.6133C28.751 15.5326 28.8356 15.4609 28.9033 15.3984C28.971 15.3359 29.0387 15.2682 29.1064 15.1953C29.2471 15.0521 29.3174 14.931 29.3174 14.832C29.3174 14.7747 29.2705 14.7461 29.1768 14.7461C29.083 14.7461 28.9163 14.8073 28.6768 14.9297C28.4398 15.0521 28.1898 15.2201 27.9268 15.4336C27.6637 15.6471 27.4684 15.8607 27.3408 16.0742C27.3356 16.082 27.3291 16.0951 27.3213 16.1133C27.3135 16.1315 27.307 16.1458 27.3018 16.1562C27.2887 16.1797 27.251 16.1914 27.1885 16.1914C27.1286 16.1914 27.07 16.1602 27.0127 16.0977C26.9346 16.0117 26.902 15.9232 26.915 15.832C26.9281 15.7409 26.9801 15.6276 27.0713 15.4922C27.1624 15.3568 27.2874 15.2148 27.4463 15.0664C27.6077 14.9154 27.7861 14.7734 27.9814 14.6406C28.1768 14.5078 28.3955 14.3984 28.6377 14.3125C28.8799 14.2266 29.1038 14.1836 29.3096 14.1836C29.5179 14.1836 29.6689 14.2344 29.7627 14.3359C29.8564 14.4375 29.9033 14.5599 29.9033 14.7031C29.9033 14.9193 29.7783 15.1836 29.5283 15.4961C29.2783 15.8086 28.8799 16.1445 28.333 16.5039C28.5439 16.5039 28.738 16.569 28.915 16.6992C29.0921 16.8268 29.1807 16.9883 29.1807 17.1836Z" fill="#BFC0C2"/>
<path d="M33.5557 14.3945C33.0036 15.2435 32.5531 15.9818 32.2041 16.6094C32.7458 16.5547 33.0426 16.5273 33.0947 16.5273C33.1494 16.5273 33.1768 16.5404 33.1768 16.5664C33.1768 16.5898 33.1104 16.6966 32.9775 16.8867C32.8473 17.0768 32.7484 17.1875 32.6807 17.2188C32.5947 17.237 32.3057 17.2682 31.8135 17.3125C31.5114 17.8464 31.1963 18.4167 30.8682 19.0234C30.8343 19.1016 30.6963 19.1628 30.4541 19.207C30.3525 19.2253 30.2848 19.2422 30.251 19.2578C30.2223 19.2578 30.1911 19.2409 30.1572 19.207C30.1234 19.1758 30.1051 19.1445 30.1025 19.1133C30.2197 18.8633 30.54 18.2826 31.0635 17.3711C30.2562 17.4284 29.833 17.457 29.7939 17.457C29.708 17.457 29.665 17.3464 29.665 17.125C29.665 17.0208 29.6729 16.9505 29.6885 16.9141C29.7822 16.6953 30.0869 16.3555 30.6025 15.8945C31.1208 15.4336 31.6416 15.0156 32.165 14.6406C32.6911 14.2656 33.0257 14.0664 33.1689 14.043C33.1715 14.043 33.182 14.0469 33.2002 14.0547C33.2184 14.0599 33.2523 14.0716 33.3018 14.0898C33.3512 14.1055 33.3981 14.1211 33.4424 14.1367C33.458 14.1471 33.4736 14.1706 33.4893 14.207C33.5049 14.2409 33.5192 14.2604 33.5322 14.2656C33.5531 14.3073 33.5635 14.3385 33.5635 14.3594C33.5635 14.3776 33.5609 14.3893 33.5557 14.3945ZM30.3994 16.8555C30.7145 16.7956 31.0687 16.7396 31.4619 16.6875C31.8239 16.0755 32.2301 15.4518 32.6807 14.8164C32.4046 15.0456 31.9788 15.4219 31.4033 15.9453C30.8278 16.4688 30.4932 16.7721 30.3994 16.8555Z" fill="#BFC0C2"/>
<path d="M35.1064 14.3945C35.3226 14.3424 35.8395 14.2786 36.6572 14.2031C36.7145 14.2031 36.7796 14.2591 36.8525 14.3711C36.9255 14.4831 36.9619 14.5612 36.9619 14.6055C36.9619 14.6497 36.9541 14.7018 36.9385 14.7617C36.9255 14.8216 36.9085 14.8594 36.8877 14.875C36.8695 14.8906 36.8304 14.9076 36.7705 14.9258C36.7106 14.944 36.6351 14.9609 36.5439 14.9766C36.4554 14.9922 36.3682 15.0065 36.2822 15.0195C36.1963 15.0299 36.0908 15.0417 35.9658 15.0547C35.8408 15.0651 35.7393 15.0742 35.6611 15.082C35.432 15.1055 35.2419 15.1211 35.0908 15.1289C34.9502 15.3555 34.7314 15.7214 34.4346 16.2266C34.5648 16.2005 34.7262 16.1875 34.9189 16.1875C35.1143 16.1875 35.3005 16.2396 35.4775 16.3438C35.6546 16.4479 35.751 16.6198 35.7666 16.8594C35.7666 17.112 35.7106 17.3581 35.5986 17.5977C35.4867 17.8372 35.3421 18.0456 35.165 18.2227C34.988 18.3971 34.7926 18.5521 34.5791 18.6875C34.1494 18.9557 33.7497 19.0898 33.3799 19.0898C32.932 19.0898 32.708 18.8841 32.708 18.4727C32.708 18.332 32.738 18.2096 32.7979 18.1055C32.8604 17.9987 32.9398 17.9453 33.0361 17.9453C33.0934 17.9453 33.1221 17.9909 33.1221 18.082C33.1325 18.293 33.2627 18.3984 33.5127 18.3984C33.7028 18.3984 33.9268 18.3385 34.1846 18.2188C34.4424 18.0964 34.6676 17.9375 34.8604 17.7422C35.0557 17.5469 35.1533 17.3581 35.1533 17.1758C35.1429 16.9909 34.9398 16.8984 34.5439 16.8984C34.307 16.8984 34.1208 16.9141 33.9854 16.9453C33.8525 16.974 33.7796 16.9883 33.7666 16.9883C33.7562 16.9883 33.7471 16.9857 33.7393 16.9805C33.7236 16.9674 33.6989 16.9258 33.665 16.8555C33.6338 16.7852 33.6182 16.7318 33.6182 16.6953C33.6182 16.6589 33.6455 16.5742 33.7002 16.4414C33.7575 16.3086 33.9554 15.9688 34.2939 15.4219C34.6325 14.8724 34.8304 14.5638 34.8877 14.4961C34.9476 14.4284 35.0205 14.3945 35.1064 14.3945Z" fill="#BFC0C2"/>
<path d="M37.4854 16.5039C37.9775 16.1628 38.3695 15.9922 38.6611 15.9922C38.7887 15.9922 38.9072 16.0378 39.0166 16.1289C39.126 16.2201 39.182 16.3568 39.1846 16.5391C39.1898 16.7214 39.1455 16.9297 39.0518 17.1641C38.958 17.3984 38.8265 17.6276 38.6572 17.8516C38.488 18.0755 38.2979 18.2812 38.0869 18.4688C37.8786 18.6536 37.6455 18.8034 37.3877 18.918C37.1299 19.0326 36.8786 19.0898 36.6338 19.0898C36.4854 19.0898 36.3551 19.0299 36.2432 18.9102C36.1338 18.7904 36.0791 18.6315 36.0791 18.4336C36.0791 18.4049 36.0804 18.3828 36.083 18.3672C36.1507 17.6198 36.5648 16.7643 37.3252 15.8008C37.557 15.5091 37.8174 15.2422 38.1064 15C38.3981 14.7552 38.6676 14.5651 38.915 14.4297C39.4307 14.1432 39.7848 14 39.9775 14C40.1911 14 40.2979 14.1224 40.2979 14.3672C40.2979 14.4818 40.2744 14.5469 40.2275 14.5625C39.6885 14.7396 39.2002 14.9805 38.7627 15.2852C38.3252 15.5898 37.8994 15.9961 37.4854 16.5039ZM38.2666 16.5625C38.113 16.5625 37.9124 16.6276 37.665 16.7578C37.4176 16.888 37.2236 17.0169 37.083 17.1445C36.8096 17.6523 36.6729 18.0391 36.6729 18.3047C36.6729 18.4375 36.7145 18.5039 36.7979 18.5039C36.8838 18.5039 37.0166 18.4531 37.1963 18.3516C37.3786 18.2474 37.5739 18.099 37.7822 17.9062C37.9906 17.7109 38.1624 17.5091 38.2979 17.3008C38.4359 17.0898 38.5036 16.9336 38.501 16.832C38.4984 16.7279 38.4723 16.6576 38.4229 16.6211C38.376 16.582 38.3239 16.5625 38.2666 16.5625Z" fill="#BFC0C2"/>
<path d="M42.8604 14.1328L42.9971 14.1367C43.0492 14.1367 43.1012 14.1875 43.1533 14.2891C43.208 14.3906 43.2354 14.4727 43.2354 14.5352C43.2354 14.5977 43.2275 14.6471 43.2119 14.6836C43.1989 14.7174 43.1859 14.7422 43.1729 14.7578C43.1338 14.8099 43.0765 14.8906 43.001 15C42.9255 15.1068 42.7041 15.3932 42.3369 15.8594C41.9723 16.3255 41.7093 16.6719 41.5479 16.8984C40.9645 17.724 40.514 18.4466 40.1963 19.0664C40.1676 19.1211 40.1182 19.1484 40.0479 19.1484L39.8955 19.1211C39.859 19.1211 39.8083 19.0938 39.7432 19.0391C39.6807 18.9844 39.6494 18.9401 39.6494 18.9062C39.6494 18.8724 39.6507 18.8464 39.6533 18.8281C39.6585 18.8073 39.6663 18.7839 39.6768 18.7578C39.6898 18.7292 39.7015 18.7031 39.7119 18.6797C39.7536 18.5911 39.7861 18.5195 39.8096 18.4648C39.9033 18.2513 40.1273 17.8906 40.4814 17.3828C40.8382 16.875 41.2171 16.3711 41.6182 15.8711C42.0192 15.3685 42.3239 15.0221 42.5322 14.832L40.4111 15.043C40.3564 15.043 40.3291 15.0234 40.3291 14.9844C40.3291 14.9453 40.3473 14.8906 40.3838 14.8203C40.4202 14.75 40.4398 14.7057 40.4424 14.6875C40.4528 14.6641 40.5505 14.5872 40.7354 14.457C40.738 14.4544 40.7588 14.431 40.7979 14.3867C40.8395 14.3398 40.889 14.3034 40.9463 14.2773C41.0036 14.2513 41.2692 14.2214 41.7432 14.1875C42.2171 14.1536 42.5895 14.1354 42.8604 14.1328Z" fill="#BFC0C2"/>
<circle cx="52.7955" cy="31.2427" r="10.2564" fill="#292D32"/>
<path d="M51.7698 26.6289L50.7441 35.8597" stroke="white" stroke-width="0.51282" stroke-linecap="round" stroke-linejoin="round"/>
<path d="M54.8469 26.6289L53.8213 35.8597" stroke="white" stroke-width="0.51282" stroke-linecap="round" stroke-linejoin="round"/>
<path d="M48.4365 29.7051H57.6673" stroke="white" stroke-width="0.769231" stroke-linecap="round" stroke-linejoin="round"/>
<path d="M47.9238 32.7812H57.1546" stroke="white" stroke-width="0.769231" stroke-linecap="round" stroke-linejoin="round"/>
</svg>
