<svg width="16" height="16" viewBox="0 0 16 16" fill="none" xmlns="http://www.w3.org/2000/svg">
<path d="M12 12.5732H11.4933C10.96 12.5732 10.4533 12.7798 10.08 13.1532L8.94 14.2798C8.42 14.7932 7.57332 14.7932 7.05332 14.2798L5.91333 13.1532C5.54 12.7798 5.02667 12.5732 4.5 12.5732H4C2.89333 12.5732 2 11.6865 2 10.5932V3.31982C2 2.22649 2.89333 1.33984 4 1.33984H12C13.1067 1.33984 14 2.22649 14 3.31982V10.5932C14 11.6798 13.1067 12.5732 12 12.5732Z" stroke="#EE4139" stroke-miterlimit="10" stroke-linecap="round" stroke-linejoin="round"/>
<path d="M8.18667 9.97319C8.08667 10.0065 7.92 10.0065 7.81333 9.97319C6.94667 9.67319 5 8.43984 5 6.33984C5 5.41318 5.74667 4.6665 6.66667 4.6665C7.21333 4.6665 7.69333 4.9265 8 5.33317C8.30667 4.9265 8.78667 4.6665 9.33333 4.6665C10.2533 4.6665 11 5.41318 11 6.33984C10.9933 8.43984 9.05333 9.67319 8.18667 9.97319Z" stroke="#EE4139" stroke-linecap="round" stroke-linejoin="round"/>
</svg>
