<svg width="146" height="25" viewBox="0 0 146 25" fill="none" xmlns="http://www.w3.org/2000/svg">
<path d="M25.345 9.20674H15.662L12.6813 0L9.68295 9.20674L0 9.1891L7.83102 14.886L4.83265 24.0927L12.6637 18.3958L20.4947 24.0927L17.514 14.886L25.345 9.20674Z" fill="#33BB77"/>
<path d="M18.1845 16.967L17.5143 14.8857L12.6816 18.3956L18.1845 16.967Z" fill="#005128"/>
<path d="M55.5071 9.20674H45.8241L42.8434 0L39.8451 9.20674L30.1621 9.1891L37.9931 14.886L34.9948 24.0927L42.8258 18.3958L50.6568 24.0927L47.6761 14.886L55.5071 9.20674Z" fill="#33BB77"/>
<path d="M48.3466 16.967L47.6764 14.8857L42.8438 18.3956L48.3466 16.967Z" fill="#005128"/>
<path d="M85.6712 9.20674H75.9882L73.0075 0L70.0091 9.20674L60.3262 9.1891L68.1572 14.886L65.1588 24.0927L72.9898 18.3958L80.8209 24.0927L77.8401 14.886L85.6712 9.20674Z" fill="#33BB77"/>
<path d="M78.5107 16.967L77.8405 14.8857L73.0078 18.3956L78.5107 16.967Z" fill="#005128"/>
<path d="M115.835 9.20674H106.152L103.172 0L100.173 9.20674L90.4902 9.1891L98.3213 14.886L95.3229 24.0927L103.154 18.3958L110.985 24.0927L108.004 14.886L115.835 9.20674Z" fill="#33BB77"/>
<path d="M108.675 16.967L108.005 14.8857L103.172 18.3956L108.675 16.967Z" fill="#005128"/>
<path d="M145.999 9.20674H136.316L133.336 0L130.337 9.20674L120.654 9.1891L128.485 14.886L125.487 24.0927L133.318 18.3958L141.149 24.0927L138.168 14.886L145.999 9.20674Z" fill="#33BB77"/>
<path d="M138.839 16.967L138.169 14.8857L133.336 18.3956L138.839 16.967Z" fill="#005128"/>
</svg>
